<svg xmlns="http://www.w3.org/2000/svg" fill="none" viewBox="0 0 23 27">
  <path fill="#fff" d="M22.518 21.041a14.6 14.6 0 0 1-1.468 2.61q-1.16 1.633-1.891 2.26-1.132 1.03-2.43 1.058-.936.001-2.246-.53-1.313-.529-2.417-.528-1.158 0-2.485.528-1.329.532-2.148.559-1.245.053-2.485-1.087-.793-.683-1.978-2.34-1.272-1.769-2.092-4.108Q0 16.936 0 14.567q0-2.716 1.187-4.678A6.9 6.9 0 0 1 3.674 7.4a6.75 6.75 0 0 1 3.363-.938q.989.002 2.6.599 1.608.598 2.063.6c.225 0 .99-.236 2.287-.707q1.838-.653 3.109-.546 3.448.275 5.17 2.692-3.08 1.848-3.05 5.167.028 2.586 1.893 4.295A6.2 6.2 0 0 0 23 19.79q-.228.652-.482 1.251M17.249.541q-.001 2.026-1.493 3.777c-1.2 1.388-2.652 2.19-4.226 2.063a4 4 0 0 1-.031-.512c0-1.296.57-2.684 1.584-3.818q.76-.861 1.93-1.433Q16.18.055 17.22 0q.029.27.028.54"/>
</svg>
