<svg xmlns="http://www.w3.org/2000/svg" fill="none" viewBox="0 0 24 24">
  <path fill="currentColor" fill-rule="evenodd" d="M10.477 2.18a.62.62 0 0 1 .398.14q.11.304.211.61.478.156.844.492a8.9 8.9 0 0 1 1.804 2.93q.435 1.113.727 2.273l-.047.07q-2.61-.81-4.687.961-.059.049-.094-.023a13.8 13.8 0 0 1-.211-4.031q.075-1.35.82-2.461a1.9 1.9 0 0 1-.07-.727.7.7 0 0 1 .305-.234m1.875.61q4.16.214 6.164 3.843.248.485.398 1.008l-.047.07q-2.061-.669-3.656.797a17 17 0 0 0-1.805-4.406 8.6 8.6 0 0 0-1.054-1.313m-3.188.609a.11.11 0 0 1 .094.024 7.3 7.3 0 0 0-.586 2.46 16.8 16.8 0 0 0 .21 3.798l-.046.14q-2.046-.672-3.656.75-.333-4.034 2.859-6.492.555-.36 1.125-.68m3.188 5.766h.14a412 412 0 0 0 1.688 8.086q-.44.057-.867-.023a870 870 0 0 0-1.665-7.852q.345-.146.704-.21" clip-rule="evenodd"/>
  <path fill="currentColor" fill-rule="evenodd" d="M23.977 14.04v.515q-.268.42-.704.68a509 509 0 0 0-5.296 3.89q-.288.218-.61.375-8.404.013-16.804.07a1.1 1.1 0 0 1-.586-.234v-1.078a.75.75 0 0 1 .375-.211L16.898 18a623 623 0 0 0 5.86-4.312q.795-.427 1.219.351M1.336 20.273H2.46a19 19 0 0 1-.516 1.407q-.562.093-1.125 0 .287-.695.516-1.407m14.205 0h1.124q.23.713.516 1.407-.562.093-1.125 0-.287-.695-.516-1.407" clip-rule="evenodd"/>
</svg>
