<svg xmlns="http://www.w3.org/2000/svg" fill="none" viewBox="0 0 24 24">
  <path fill="currentColor" fill-rule="evenodd" d="M23.977 14.32v1.313q-.622 3.048-3.657 3.773-2.99.398-4.664-2.086-1.1-1.996-.281-4.125a4.64 4.64 0 0 1 1.758-2.039l-.82-1.898a1436 1436 0 0 1-4.618 6.305q-.156.09-.328.14-1.243.012-2.484.07-.735 3.162-3.938 3.68-2.523.2-4.101-1.758a5.2 5.2 0 0 1-.867-2.062V14.32q.55-2.694 3.14-3.633 1.916-.525 3.656.446a32 32 0 0 0 1.313-1.57q-.435-1.048-.89-2.086a5 5 0 0 0-.704-.07q-.728-.357-.398-1.102A.75.75 0 0 1 6.539 6a61 61 0 0 1 3.375 0q.657.258.492.96a.7.7 0 0 1-.492.446q-.563.013-1.125.07.31.671.563 1.36a177 177 0 0 0 6.14-1.594 6.4 6.4 0 0 1-.469-1.289.73.73 0 0 1 .235-.562 40 40 0 0 1 2.531-.891q1.02-.106.914.914a.95.95 0 0 1-.492.492 43 43 0 0 0-1.5.516q.888 2.07 1.758 4.148 3.27-.504 5.015 2.297.345.702.493 1.453m-9.329-5.297a438 438 0 0 1-3.257 4.5q-.705-1.656-1.43-3.304 2.334-.642 4.687-1.196m-5.953 2.11q.13.044.164.187.603 1.461 1.243 2.907-2.04.081-4.079.023a83 83 0 0 0 2.672-3.117m-4.406.797q.792-.001 1.5.351-.946 1.158-1.945 2.274-.372.814.445 1.148 1.548.012 3.094.07-.93 2.53-3.61 2.18-2.537-.819-2.32-3.492.573-2.225 2.836-2.531m15.14 0q2.46.15 3.071 2.53.237 2.259-1.758 3.306-2.128.783-3.633-.914-1.305-1.956.094-3.844.215-.25.492-.422.617 1.399 1.196 2.812.533.584 1.148.094a.85.85 0 0 0 .164-.75q-.555-1.368-1.148-2.719.197-.046.375-.093" clip-rule="evenodd"/>
</svg>
