<svg xmlns="http://www.w3.org/2000/svg" fill="none" viewBox="0 0 24 24">
  <path fill="currentColor" fill-rule="evenodd" d="M10.898-.023h2.11q7.102.904 9.96 7.453 2.355 6.773-2.25 12.234-4.565 4.82-11.132 3.68-.735-.166-1.453-.399a11.8 11.8 0 0 1-3.797 1.032H2.414a5.3 5.3 0 0 1-.937-.258q-.595-.54-.211-1.242.81-.687 1.593-1.407.415-.431.727-.937Q-.678 15.548.422 9.352 1.847 3.452 7.336.89a12.5 12.5 0 0 1 3.562-.914m-4.78 10.125q2.364-.06 2.226 2.296-.522 1.627-2.227 1.43-1.643-.51-1.476-2.226.306-1.185 1.476-1.5m5.483 0q1.743-.168 2.227 1.5.166 1.719-1.476 2.226-1.744.201-2.227-1.476-.192-1.75 1.476-2.25m5.485 0q1.717-.133 2.227 1.5.166 1.717-1.477 2.226-1.705.197-2.227-1.43-.213-1.779 1.477-2.296" clip-rule="evenodd"/>
</svg>
