<svg xmlns="http://www.w3.org/2000/svg" fill="none" viewBox="0 0 24 24">
  <path fill="currentColor" fill-rule="evenodd" d="M17.695-.023h.563q.582.321.398.984l-2.508 5.016q1.804.058 3.61.07.63.362.351 1.055-1.334 1.965-2.718 3.89-.93-.588-1.852-1.195-1.54-.77-2.953.21A347 347 0 0 1 17.344.306q.141-.205.351-.328m-13.5 6.045Q8.578 6 12.961 6.07l-1.875 3.75q-1.33-.734-2.672-.023-.921.607-1.851 1.195a92 92 0 0 1-2.766-3.984q-.184-.663.398-.985m13.313 17.954H6.445q-.63-.375-.351-1.079.124-.208.351-.304 2.415-.036 4.829-.024.011-2.367-.024-4.734l-3.914-5.672q.856-.609 1.734-1.195a1.4 1.4 0 0 1 1.313 0 .34.34 0 0 1 .094.117q-.435.798-.75 1.64.213.951 1.078.54l.164-.164.773-1.547q.495-.066.985-.164.568-.203 1.078-.516.555-.156 1.078.094.879.585 1.734 1.195l-3.914 5.672q-.035 2.367-.023 4.734 2.415-.012 4.828.024.63.362.351 1.054a1.1 1.1 0 0 1-.351.329" clip-rule="evenodd"/>
</svg>
