<svg xmlns="http://www.w3.org/2000/svg" fill="none" viewBox="0 0 24 24">
  <g fill="currentColor" fill-rule="evenodd" clip-path="url(#a)" clip-rule="evenodd">
    <path d="M15.914-.023h.938q.498.147.937.445l1.29 1.289A7.7 7.7 0 0 1 20.132.75q1.377-.62 2.578.281 1.256 1.316.398 2.93-.407.478-.867.914l1.29 1.29q.32.428.445.937v.937a2.36 2.36 0 0 1-.938 1.383.85.85 0 0 1-.422.187l-8.273-8.273q.17-.502.586-.867.46-.324.984-.492m-3.655 1.218a3315 3315 0 0 1 10.5 10.477q-1.011 1.842-3 1.172l-.469-.281-7.945-7.946q-.888-1.432.094-2.812a3.1 3.1 0 0 1 .82-.61m.515 6.797a153 153 0 0 1 3.188 3.188 938 938 0 0 1-4.805 4.78l-3.164-3.163a693 693 0 0 0 4.781-4.805m-9.515 2.906q.744.02 1.36.446l7.945 7.945q.883 1.31.093 2.672-.384.532-.984.797L1.195 12.28q.622-1.306 2.063-1.383m4.782 13.08h-.938a2.6 2.6 0 0 1-.938-.446l-1.289-1.289a7.7 7.7 0 0 1-1.055.961q-1.377.62-2.578-.281-1.177-1.225-.492-2.79.429-.568.96-1.054L.423 17.79a3.4 3.4 0 0 1-.445-.937v-.938q.208-.756.796-1.289.255-.211.563-.281l8.273 8.273q-.17.503-.586.867-.459.324-.984.493"/>
  </g>
</svg>
