<svg xmlns="http://www.w3.org/2000/svg" fill="none" viewBox="0 0 24 24">
  <g fill="currentColor" fill-rule="evenodd" clip-path="url(#clip0_4934_1800)" clip-rule="evenodd">
    <path d="M23.977 5.367v.516l-.211.328a345 345 0 0 0-4.805 4.758q-1.647 1.22-3.656.75L12.28 8.695q-.435-1.904.656-3.515A380 380 0 0 1 17.93.14q.972-.404 1.218.61-.018.18-.07.352a265 265 0 0 1-4.172 4.218q-.54.74.117 1.383.668.427 1.266-.094a259 259 0 0 1 4.172-4.125q.965-.22 1.125.75a.96.96 0 0 1-.211.54l-4.078 4.078q-.486.912.398 1.43.466.156.891-.094l4.172-4.172q.786-.413 1.219.351m-24-.609V3.164Q.153 1.92.703.774 1.234.156 1.945.561L22.22 20.836q.327.54 0 1.078l-1.758 1.758q-.507.35-1.031.047-4.89-5.235-9.75-10.5-1.335.098-2.672.14a2.2 2.2 0 0 1-1.125-.515 157 157 0 0 1-4.525-4.617A7.6 7.6 0 0 1-.023 4.758"/>
    <path d="M8.93 14.789a.11.11 0 0 1 .093.023l1.336 1.43a.12.12 0 0 1 0 .14l-7.382 7.384a.96.96 0 0 1-.985.046L.188 22.008a.9.9 0 0 1 0-.89 585 585 0 0 0 6.21-6.259q1.276.146 2.532-.07"/>
  </g>
</svg>
