<svg xmlns="http://www.w3.org/2000/svg" fill="none" viewBox="0 0 27 27">
  <path fill="#4285F4" fill-rule="evenodd" d="M26.46 13.806c0-.957-.087-1.877-.246-2.761H13.5v5.222h7.265a6.2 6.2 0 0 1-2.694 4.074v3.388h4.363c2.552-2.35 4.025-5.811 4.025-9.923" clip-rule="evenodd"/>
  <path fill="#34A853" fill-rule="evenodd" d="M13.499 27c3.645 0 6.7-1.21 8.934-3.271L18.07 20.34c-1.209.81-2.755 1.289-4.571 1.289-3.516 0-6.492-2.375-7.554-5.566h-4.51v3.498a13.49 13.49 0 0 0 12.064 7.437" clip-rule="evenodd"/>
  <path fill="#FBBC05" fill-rule="evenodd" d="M5.946 16.065a8.1 8.1 0 0 1-.423-2.565c0-.89.153-1.755.423-2.565V7.437h-4.51A13.5 13.5 0 0 0 0 13.5c0 2.178.522 4.24 1.436 6.062z" clip-rule="evenodd"/>
  <path fill="#EA4335" fill-rule="evenodd" d="M13.499 5.37c1.982 0 3.761.68 5.16 2.018l3.872-3.872C20.193 1.338 17.138 0 13.5 0A13.5 13.5 0 0 0 1.435 7.437l4.51 3.498C7.007 7.744 9.983 5.369 13.5 5.369" clip-rule="evenodd"/>
</svg>
