<svg xmlns="http://www.w3.org/2000/svg" fill="none" viewBox="0 0 24 24">
  <path fill="currentColor" fill-rule="evenodd" d="M23 12c0-6.075-4.925-11-11-11S1 5.925 1 12s4.925 11 11 11 11-4.925 11-11M3.642 8.655a9.03 9.03 0 0 1 5.013-5.013C8.12 4.675 7.7 5.962 7.417 7.417c-1.455.283-2.742.703-3.775 1.238m11.704-5.013c.534 1.033.954 2.32 1.237 3.775 1.455.283 2.742.703 3.775 1.238a9.03 9.03 0 0 0-5.013-5.013M3 12c0-.9 1.629-1.875 4.114-2.462A26 26 0 0 0 7 12c0 .845.039 1.67.114 2.462C4.63 13.875 3 12.899 3 12m14 0c0 .845-.039 1.67-.114 2.462C19.37 13.875 21 12.899 21 12s-1.629-1.875-4.114-2.462c.075.793.114 1.617.114 2.462M3.642 15.345c1.033.535 2.32.955 3.775 1.238.283 1.455.703 2.742 1.238 3.775a9.03 9.03 0 0 1-5.013-5.013m12.94 1.238c-.282 1.455-.702 2.742-1.237 3.775a9.03 9.03 0 0 0 5.013-5.013c-1.033.535-2.32.955-3.775 1.238M9 12c0-.99.062-1.94.173-2.827a23 23 0 0 1 5.654 0 23 23 0 0 1 0 5.654A23 23 0 0 1 12 15c-.99 0-1.94-.062-2.827-.173A23 23 0 0 1 9 12m.538 4.886C10.125 19.37 11.101 21 12 21s1.875-1.629 2.462-4.114a26.5 26.5 0 0 1-4.924 0M12 3c-.9 0-1.875 1.629-2.462 4.114A26 26 0 0 1 12 7c.845 0 1.67.039 2.462.114C13.875 4.63 12.899 3 12 3" clip-rule="evenodd"/>
</svg>
