<svg xmlns="http://www.w3.org/2000/svg" fill="none" viewBox="0 0 24 24">
  <path fill="currentColor" fill-rule="evenodd" d="M12 24C5.373 24 0 18.627 0 12S5.373 0 12 0s12 5.373 12 12-5.373 12-12 12m8.072-6.41A9.77 9.77 0 0 0 21.818 12c0-5.422-4.396-9.818-9.818-9.818S2.182 6.578 2.182 12a9.77 9.77 0 0 0 1.746 5.59C5.156 15.97 8.04 15.273 12 15.273s6.844.696 8.072 2.317m-1.565 1.762c-.32-1.148-2.613-1.898-6.507-1.898s-6.188.75-6.507 1.898A9.78 9.78 0 0 0 12 21.819a9.78 9.78 0 0 0 6.507-2.466M12 15.272c-2.443 0-4.364-1.715-4.364-5.454C7.636 7.37 9.36 5.455 12 5.455c2.634 0 4.364 2.096 4.364 4.581 0 3.578-1.944 5.237-4.364 5.237M9.818 9.819c0 2.476.893 3.273 2.182 3.273 1.285 0 2.182-.765 2.182-3.055 0-1.363-.856-2.4-2.182-2.4-1.381 0-2.182.89-2.182 2.182" clip-rule="evenodd"/>
</svg>
